<svg width="20" height="20" viewBox="0 0 20 20" fill="none" xmlns="http://www.w3.org/2000/svg">
<path d="M19.9074 3.38649L19.9293 0L16.6526 0.00331248L8.02837 8.62755C7.3647 8.36832 6.64324 8.22447 5.88776 8.22447C2.63603 8.22447 0 10.8605 0 14.1122C0 17.364 2.63603 20 5.88776 20C9.13949 20 11.7755 17.364 11.7755 14.1122C11.7755 13.3431 11.6607 12.697 11.3924 12.0235L12.9273 10.5302H15.2557L15.2382 8.08824L16.3077 7.02601L17.6017 7.01217V4.64999L19.9293 4.64972L19.9074 3.38649ZM5.28052 16.4089C4.3084 16.4089 3.52034 15.6209 3.52034 14.6488C3.52034 13.6766 4.3084 12.8886 5.28052 12.8886C6.25263 12.8886 7.04069 13.6766 7.04069 14.6488C7.04069 15.6209 6.25263 16.4089 5.28052 16.4089Z" fill="#06ffff"/>
</svg>
