<svg width="63" height="91" xmlns="http://www.w3.org/2000/svg">

 <g>
  <title>background</title>
  <rect fill="none" id="canvas_background" height="93" width="65" y="-1" x="-1"/>
 </g>
 <g>
  <title>Layer 1</title>
  <g id="svg_1">
   <path id="svg_2" fill="#06ffff" d="m63.14286,77.896885l0,-19.063454c0,-6.451386 -3.80032,-12.425187 -10.115535,-16.450315c2.838194,-4.307845 4.499766,-9.505372 4.499766,-15.099022c0,-14.843458 -11.685402,-26.92044 -26.047348,-26.92044c-14.355729,0 -26.034914,12.076981 -26.034914,26.92044c0,5.665527 1.709756,10.918958 4.613231,15.261944c-6.156674,4.025128 -9.862181,9.93983 -9.862181,16.287393l0,19.065051l5.284699,0l0,-19.065051c0,-4.654454 3.02005,-9.085289 8.028079,-12.120108c3.403968,3.368649 7.676802,5.793309 12.443912,6.866677l-5.415262,27.137669l11.133617,9.152375l11.133617,-9.152375l-5.51163,-27.215935c4.717371,-1.116494 8.949793,-3.550738 12.307131,-6.919387c5.149473,3.034819 8.258119,7.511975 8.258119,12.251084l0,19.065051l5.284699,0l0,-0.001597zm-31.471936,5.020229l-5.306459,-4.360555l4.453136,-22.318696l1.630485,0l4.521526,22.321891l-5.298688,4.357361zm-0.191182,-34.144906c-11.441373,0 -20.751769,-9.639543 -20.751769,-21.488114c0,-11.851766 9.308842,-21.488114 20.751769,-21.488114c11.44759,0 20.761095,9.636348 20.761095,21.488114c0,11.848571 -9.313505,21.488114 -20.761095,21.488114z"/>
  </g>
 </g>
</svg>