<svg width="32" height="32" viewBox="0 0 32 32" fill="none" xmlns="http://www.w3.org/2000/svg">
<g clip-path="url(#clip0_313_186)">
<path d="M29 9H24C23.7348 9 23.4804 9.10536 23.2929 9.29289C23.1054 9.48043 23 9.73478 23 10C23 10.2652 23.1054 10.5196 23.2929 10.7071C23.4804 10.8946 23.7348 11 24 11H29C29.2652 11 29.5196 11.1054 29.7071 11.2929C29.8946 11.4804 30 11.7348 30 12V28C30 28.2652 29.8946 28.5196 29.7071 28.7071C29.5196 28.8946 29.2652 29 29 29H3C2.73478 29 2.48043 28.8946 2.29289 28.7071C2.10536 28.5196 2 28.2652 2 28V12C2 11.7348 2.10536 11.4804 2.29289 11.2929C2.48043 11.1054 2.73478 11 3 11H11C11 11.5304 11.2107 12.0391 11.5858 12.4142C11.9609 12.7893 12.4696 13 13 13H19C19.5304 13 20.0391 12.7893 20.4142 12.4142C20.7893 12.0391 21 11.5304 21 11V3C21 2.46957 20.7893 1.96086 20.4142 1.58579C20.0391 1.21071 19.5304 1 19 1H13C12.4696 1 11.9609 1.21071 11.5858 1.58579C11.2107 1.96086 11 2.46957 11 3V9H3C2.20435 9 1.44129 9.31607 0.87868 9.87868C0.31607 10.4413 0 11.2044 0 12L0 28C0 28.7956 0.31607 29.5587 0.87868 30.1213C1.44129 30.6839 2.20435 31 3 31H29C29.7956 31 30.5587 30.6839 31.1213 30.1213C31.6839 29.5587 32 28.7956 32 28V12C32 11.2044 31.6839 10.4413 31.1213 9.87868C30.5587 9.31607 29.7956 9 29 9ZM13 3H19V11H13V3Z" fill="#06FFFF"/>
<path d="M4 26.0001C4 26.2653 4.10536 26.5197 4.29289 26.7072C4.48043 26.8948 4.73478 27.0001 5 27.0001H13C13.2652 27.0001 13.5196 26.8948 13.7071 26.7072C13.8946 26.5197 14 26.2653 14 26.0001C13.9996 25.1813 13.7982 24.3751 13.4134 23.6524C13.0286 22.9297 12.4721 22.3125 11.793 21.8551C12.3624 21.2998 12.7532 20.5873 12.9157 19.8087C13.0781 19.0301 13.0048 18.2207 12.705 17.484C12.4052 16.7473 11.8926 16.1167 11.2326 15.6728C10.5727 15.2288 9.79537 14.9917 9 14.9917C8.20463 14.9917 7.42732 15.2288 6.76738 15.6728C6.10744 16.1167 5.59482 16.7473 5.29503 17.484C4.99523 18.2207 4.92187 19.0301 5.08432 19.8087C5.24676 20.5873 5.63763 21.2998 6.207 21.8551C5.52786 22.3125 4.97143 22.9297 4.58661 23.6524C4.2018 24.3751 4.00036 25.1813 4 26.0001V26.0001ZM7 19.0001C7 18.6046 7.1173 18.2179 7.33706 17.889C7.55682 17.5601 7.86918 17.3037 8.23463 17.1524C8.60009 17.001 9.00222 16.9614 9.39018 17.0385C9.77814 17.1157 10.1345 17.3062 10.4142 17.5859C10.6939 17.8656 10.8844 18.222 10.9616 18.6099C11.0387 18.9979 10.9991 19.4 10.8478 19.7655C10.6964 20.1309 10.44 20.4433 10.1111 20.6631C9.78224 20.8828 9.39556 21.0001 9 21.0001C8.46957 21.0001 7.96086 20.7894 7.58579 20.4143C7.21071 20.0393 7 19.5305 7 19.0001ZM9 23.0001C9.62027 23.0009 10.2251 23.1935 10.7316 23.5516C11.2381 23.9096 11.6214 24.4156 11.829 25.0001H6.171C6.37858 24.4156 6.7619 23.9096 7.26839 23.5516C7.77487 23.1935 8.37973 23.0009 9 23.0001V23.0001Z" fill="#06FFFF"/>
<path d="M25 25H19C18.7348 25 18.4804 24.8946 18.2929 24.7071C18.1054 24.5196 18 24.2652 18 24C18 23.7348 18.1054 23.4804 18.2929 23.2929C18.4804 23.1054 18.7348 23 19 23H25C25.2652 23 25.5196 23.1054 25.7071 23.2929C25.8946 23.4804 26 23.7348 26 24C26 24.2652 25.8946 24.5196 25.7071 24.7071C25.5196 24.8946 25.2652 25 25 25Z" fill="#06FFFF"/>
<path d="M27 21H19C18.7348 21 18.4804 20.8946 18.2929 20.7071C18.1054 20.5196 18 20.2652 18 20C18 19.7348 18.1054 19.4804 18.2929 19.2929C18.4804 19.1054 18.7348 19 19 19H27C27.2652 19 27.5196 19.1054 27.7071 19.2929C27.8946 19.4804 28 19.7348 28 20C28 20.2652 27.8946 20.5196 27.7071 20.7071C27.5196 20.8946 27.2652 21 27 21Z" fill="#06FFFF"/>
<path d="M27 17H19C18.7348 17 18.4804 16.8946 18.2929 16.7071C18.1054 16.5196 18 16.2652 18 16C18 15.7348 18.1054 15.4804 18.2929 15.2929C18.4804 15.1054 18.7348 15 19 15H27C27.2652 15 27.5196 15.1054 27.7071 15.2929C27.8946 15.4804 28 15.7348 28 16C28 16.2652 27.8946 16.5196 27.7071 16.7071C27.5196 16.8946 27.2652 17 27 17Z" fill="#06FFFF"/>
<path d="M16.0197 9C15.8883 9.00066 15.7582 8.97544 15.6366 8.92579C15.515 8.87614 15.4044 8.80304 15.3111 8.71064C15.1226 8.52404 15.016 8.27022 15.0147 8.005C15.0133 7.73978 15.1174 7.4849 15.304 7.29643C15.4906 7.10795 15.7444 7.00133 16.0097 7H16.0197C16.2849 7 16.5392 7.10536 16.7268 7.29289C16.9143 7.48043 17.0197 7.73478 17.0197 8C17.0197 8.26522 16.9143 8.51957 16.7268 8.70711C16.5392 8.89464 16.2849 9 16.0197 9Z" fill="#06FFFF"/>
</g>
<defs>
<clipPath id="clip0_313_186">
<rect width="32" height="32" fill="white"/>
</clipPath>
</defs>
</svg>
