<svg width="11" height="20" xmlns="http://www.w3.org/2000/svg">

 <g>
  <title>background</title>
  <rect fill="none" id="canvas_background" height="22" width="13" y="-1" x="-1"/>
 </g>
 <g>
  <title>Layer 1</title>
  <path id="svg_1" fill-rule="evenodd" fill="#06ffff" d="m10.677813,12.868319c0.42955,0.485837 0.42955,1.273627 0,1.759464l-4.400001,4.976564c-0.42955,0.485837 -1.126048,0.485837 -1.555631,0l-4.400001,-4.976564c-0.429572,-0.485837 -0.429572,-1.273627 0,-1.759464c0.429583,-0.485837 1.126059,-0.485837 1.555642,0l2.52218,2.852691l0,-14.414369c0,-0.687114 0.492492,-1.244141 1.1,-1.244141c0.60753,0 1.1,0.557027 1.1,1.244141l0,14.414369l2.522191,-2.852691c0.42955,-0.485837 1.12607,-0.485837 1.55562,0z" clip-rule="evenodd"/>
 </g>
</svg>