<svg width="10" height="13.85" xmlns="http://www.w3.org/2000/svg">

 <g>
  <title>background</title>
  <rect fill="none" id="canvas_background" height="15.85" width="12" y="-1" x="-1"/>
 </g>
 <g>
  <title>Layer 1</title>
  <g id="layer1">
   <path clip-rule="nonzero" fill="#06ffff" fill-rule="nonzero" stroke-width="0.529167" stroke-linecap="round" stroke-linejoin="round" stroke-miterlimit="4" stroke-dashoffset="0" id="path929" d="m4.998333,0.048575c-2.739191,0 -4.96899,2.253555 -4.96899,5.021927c-0.000002,4.871139 4.688858,8.574368 4.688858,8.574368a0.451812,0.456627 0 0 0 0.563598,0c0,0 4.688868,-3.70323 4.688858,-8.574368c-0.000005,-2.768371 -2.233134,-5.021927 -4.972325,-5.021927zm0,0.913374c2.250883,0 4.068565,1.833685 4.068568,4.108553c0.000009,3.984995 -3.570414,7.133426 -4.065234,7.559871c-0.492457,-0.424305 -4.06857,-3.573322 -4.068568,-7.559871c0,-2.274867 1.814349,-4.108553 4.065234,-4.108553z"/>
   <path clip-rule="nonzero" fill="#06ffff" fill-rule="nonzero" stroke-width="0.529167" stroke-linecap="round" stroke-linejoin="round" stroke-miterlimit="4" stroke-dashoffset="0" id="circle931" d="m4.998165,2.638372c-1.36724,0 -2.485048,1.169133 -2.485054,2.599152c-0.000008,1.430039 1.117805,2.603004 2.485054,2.603004c1.367249,0 2.488732,-1.172966 2.488724,-2.603004c-0.000006,-1.430019 -1.121485,-2.599152 -2.488724,-2.599152zm0,1.040419c0.829768,0 1.493965,0.690861 1.493969,1.558732c0.000006,0.867871 -0.664195,1.562565 -1.493969,1.562565c-0.829773,0 -1.490304,-0.694694 -1.490298,-1.562565c0.000004,-0.867871 0.660531,-1.558732 1.490298,-1.558732z"/>
  </g>
 </g>
</svg>