<?xml version="1.0" standalone="no"?>
<!DOCTYPE svg PUBLIC "-//W3C//DTD SVG 20010904//EN"
 "http://www.w3.org/TR/2001/REC-SVG-20010904/DTD/svg10.dtd">
<svg version="1.0" xmlns="http://www.w3.org/2000/svg"
 width="912.000000pt" height="912.000000pt" viewBox="0 0 912.000000 912.000000"
 preserveAspectRatio="xMidYMid meet">
<metadata>
Created by potrace 1.14, written by Peter Selinger 2001-2017
</metadata>
<g transform="translate(0.000000,912.000000) scale(0.100000,-0.100000)"
fill="#000000" stroke="none">
<path d="M9050 8903 c0 -5 -13 -22 -28 -40 -53 -63 -87 -106 -96 -122 -5 -9
-14 -20 -20 -26 -6 -5 -34 -39 -61 -75 -27 -36 -52 -67 -55 -70 -3 -3 -18 -23
-35 -45 -16 -22 -33 -44 -37 -50 -48 -59 -63 -78 -205 -260 -65 -82 -121 -151
-125 -153 -5 -2 -8 -10 -8 -17 0 -7 -3 -15 -8 -17 -4 -1 -47 -55 -96 -118 -49
-63 -94 -119 -100 -125 -7 -5 -23 -26 -36 -45 -13 -19 -27 -37 -30 -40 -3 -3
-19 -23 -36 -45 -28 -39 -100 -131 -133 -170 -9 -11 -30 -38 -46 -60 -16 -22
-32 -42 -35 -45 -3 -3 -46 -57 -95 -120 -49 -63 -93 -119 -97 -125 -11 -14
-65 -83 -91 -118 -12 -16 -27 -34 -32 -40 -6 -7 -33 -41 -60 -77 -52 -66 -66
-84 -109 -135 -14 -16 -26 -33 -26 -36 0 -4 -12 -20 -27 -37 -16 -16 -35 -40
-43 -52 -8 -12 -20 -28 -25 -34 -13 -14 -84 -105 -109 -140 -10 -14 -30 -39
-45 -55 -14 -16 -39 -48 -56 -71 -16 -23 -37 -49 -45 -59 -8 -9 -44 -55 -80
-101 -35 -47 -68 -86 -72 -88 -4 -2 -8 -9 -8 -15 0 -7 -9 -18 -20 -25 -11 -7
-20 -16 -20 -21 0 -5 -9 -20 -20 -33 -11 -12 -51 -63 -90 -113 -106 -135 -114
-145 -132 -168 -10 -12 -21 -26 -26 -32 -4 -5 -28 -37 -54 -70 -25 -33 -55
-71 -67 -84 -12 -13 -21 -27 -21 -30 0 -3 -10 -17 -23 -31 -12 -14 -54 -65
-92 -115 -38 -49 -73 -91 -77 -93 -5 -2 -8 -8 -8 -13 0 -5 -8 -17 -17 -28 -10
-10 -29 -33 -43 -51 -59 -76 -90 -116 -102 -130 -7 -8 -51 -65 -98 -125 -46
-61 -89 -115 -95 -121 -5 -7 -19 -24 -30 -40 -11 -15 -25 -32 -30 -38 -6 -6
-33 -40 -60 -76 -27 -36 -56 -73 -64 -82 -9 -9 -68 -84 -131 -166 l-115 -149
-60 13 c-33 7 -73 15 -90 18 -16 2 -41 8 -55 11 -14 4 -36 8 -50 10 -25 4 -55
10 -107 21 -16 3 -39 8 -53 10 -14 2 -56 10 -95 19 -38 8 -86 18 -105 21 -19
3 -38 8 -41 10 -4 2 -24 6 -45 9 -22 3 -50 8 -64 11 -21 5 -166 34 -250 50
-14 3 -32 7 -40 9 -8 3 -32 7 -54 11 -21 3 -48 8 -60 10 -11 3 -32 7 -46 10
-14 3 -59 12 -100 21 -41 8 -82 16 -90 18 -17 3 -92 18 -100 20 -11 2 -87 17
-110 21 -14 3 -92 18 -175 35 -82 17 -160 33 -172 35 -13 2 -33 6 -45 9 -13 2
-36 7 -53 10 -53 10 -229 46 -255 52 -14 3 -34 6 -45 8 -11 1 -20 3 -20 4 0 1
-11 4 -25 6 -20 3 -155 29 -450 89 -14 3 -36 7 -50 11 -14 3 -41 8 -60 11 -58
9 -72 12 -140 28 -36 8 -83 18 -105 22 -22 3 -101 18 -175 34 -74 16 -151 31
-170 34 -19 3 -69 12 -110 21 -41 9 -84 18 -95 20 -11 2 -31 6 -45 9 -13 3
-42 8 -64 12 -22 3 -44 8 -48 10 -4 3 -22 7 -40 9 -18 2 -67 11 -108 20 -41 9
-87 18 -102 20 -15 2 -36 6 -47 10 -10 3 -32 8 -47 10 -16 3 -63 12 -104 20
-41 8 -86 17 -100 20 -24 4 -99 19 -150 29 -14 3 -45 10 -70 15 -25 6 -61 13
-80 16 -70 12 -75 13 -80 15 -3 1 -8 2 -12 1 -4 0 -18 3 -30 8 -13 5 -45 12
-72 15 -27 4 -52 9 -55 11 -3 1 -22 6 -41 9 -77 12 -282 56 -292 62 -11 7 -10
-11 4 -43 6 -15 12 -30 13 -33 0 -3 11 -25 22 -50 12 -25 40 -88 63 -140 23
-52 53 -120 67 -150 14 -30 61 -136 105 -235 44 -99 88 -198 98 -220 10 -22
41 -92 70 -155 28 -63 55 -124 60 -135 5 -11 26 -56 46 -100 34 -76 55 -124
59 -135 1 -3 11 -27 23 -53 12 -27 22 -53 22 -58 0 -5 5 -9 10 -9 6 0 9 -3 8
-7 -2 -11 25 -74 139 -321 18 -40 33 -75 33 -77 0 -5 68 -156 80 -177 6 -10
10 -25 10 -33 0 -8 4 -15 8 -15 4 0 14 -16 21 -35 7 -20 26 -66 44 -103 17
-37 31 -69 32 -72 3 -11 47 -109 104 -233 17 -37 31 -69 31 -71 0 -2 18 -44
40 -93 23 -48 45 -97 50 -108 5 -11 26 -58 48 -105 21 -47 43 -96 47 -110 4
-14 14 -33 23 -42 8 -10 12 -18 8 -18 -4 0 0 -12 8 -28 8 -15 23 -47 34 -72
11 -25 36 -80 56 -123 20 -44 36 -80 36 -82 0 -2 13 -32 29 -67 16 -35 57
-126 91 -203 34 -77 75 -168 91 -201 16 -34 29 -64 29 -67 0 -3 17 -43 39 -89
35 -75 72 -159 72 -165 0 -1 16 -34 35 -73 19 -39 34 -73 34 -75 0 -4 31 -74
81 -180 12 -27 23 -52 24 -55 0 -3 8 -23 19 -45 43 -93 93 -204 125 -280 12
-27 28 -61 36 -75 l14 -25 3380 -3 3381 -2 0 1072 c0 590 1 2534 3 4321 1
1786 -1 3247 -5 3247 -5 0 -8 -3 -8 -7z"/>
</g>
</svg>
