<svg width="120" height="28" viewBox="0 0 120 28" fill="none" xmlns="http://www.w3.org/2000/svg">
<g clip-path="url(#clip0_2_15)">
<path d="M6.9768 26.7748H27.9154V16.7362L-0.0030632 11.1608L6.9768 26.7748Z" fill="url(#paint0_linear_2_15)"/>
<path d="M-0.0030632 11.1608L6.9768 26.7748H27.9154L-0.0030632 11.1608Z" fill="url(#paint1_linear_2_15)"/>
<path d="M13.3464 18.6261L27.9195 0.00686646L27.9113 26.7767L13.3464 18.6261Z" fill="url(#paint2_linear_2_15)"/>
<path d="M43.4243 7.10898C46.1983 7.10898 48.5625 8.07766 50.5168 10.015C52.471 11.9524 53.4478 14.3142 53.4472 17.1004C53.4472 19.8867 52.47 22.2485 50.5158 24.1858C48.5615 26.1232 46.1977 27.0935 43.4243 27.0968C40.1478 27.0968 37.6516 25.8431 35.9355 23.3356V26.6029H32.4881V0.00491333H35.9386V10.8701C37.654 8.3627 40.1492 7.10898 43.4243 7.10898ZM42.9881 23.8972C44.9676 23.8972 46.6318 23.245 47.9806 21.9405C49.3294 20.6361 50.0031 19.0214 50.0018 17.0965C50.0018 15.1722 49.328 13.5576 47.9806 12.2525C46.6332 10.9474 44.969 10.2951 42.9881 10.2958C40.9799 10.2958 39.3028 10.948 37.9567 12.2525C36.6106 13.5569 35.9379 15.1729 35.9386 17.1004C35.9386 19.026 36.6123 20.6407 37.9598 21.9445C39.3072 23.2483 40.9833 23.9005 42.9881 23.9011V23.8972Z" fill="#333333"/>
<path d="M73.2584 7.60281H76.7058V26.598H73.2584V23.3307C71.5416 25.8382 69.0457 27.0919 65.7706 27.0919C62.9966 27.0919 60.6324 26.1232 58.6782 24.1858C56.7239 22.2485 55.7464 19.8867 55.7457 17.1004C55.7457 14.3142 56.7232 11.9524 58.6782 10.015C60.6331 8.07766 62.9973 7.10898 65.7706 7.10898C69.0471 7.10898 71.543 8.36269 73.2584 10.8701V7.60281ZM66.2058 23.9001C68.2126 23.9001 69.8901 23.2479 71.2382 21.9435C72.5863 20.639 73.2597 19.0244 73.2584 17.0994C73.2584 15.1752 72.585 13.5605 71.2382 12.2554C69.8915 10.9503 68.214 10.2981 66.2058 10.2987C64.2263 10.2987 62.5621 10.951 61.2133 12.2554C59.8645 13.5598 59.1911 15.1745 59.1932 17.0994C59.1932 19.025 59.8665 20.6397 61.2133 21.9435C62.5601 23.2473 64.2242 23.8998 66.2058 23.9011V23.9001Z" fill="#333333"/>
<path d="M91.8256 10.7935H86.5556V21.0893C86.5556 22.0272 86.7471 22.6922 87.13 23.0843C87.5129 23.4763 88.1007 23.6789 88.8932 23.692C89.6856 23.7051 90.6631 23.6861 91.8256 23.635V26.598C88.8147 26.9776 86.6088 26.7433 85.2082 25.8951C83.8075 25.0468 83.1075 23.4433 83.1081 21.0844V10.7935H79.1856V7.60278H83.1081V3.27123L86.5556 2.28357V7.60278H91.8256V10.7935Z" fill="#333333"/>
<path d="M111.033 24.2045C108.999 26.1327 106.53 27.0968 103.624 27.0968C100.718 27.0968 98.255 26.1343 96.2345 24.2094C94.214 22.2851 93.2038 19.9171 93.2038 17.1053C93.2038 14.2935 94.214 11.9255 96.2345 10.0012C98.2543 8.07567 100.717 7.11321 103.624 7.11386C106.53 7.11452 109 8.07698 111.033 10.0012C113.067 11.9262 114.084 14.2942 114.084 17.1053C114.084 19.9164 113.067 22.2828 111.033 24.2045ZM103.624 23.8628C105.603 23.8628 107.268 23.2171 108.616 21.9258C109.965 20.6344 110.639 19.026 110.638 17.1004C110.638 15.1761 109.964 13.568 108.616 12.276C107.269 10.984 105.605 10.338 103.624 10.338C101.67 10.338 100.019 10.984 98.6713 12.276C97.3239 13.568 96.6519 15.1761 96.6553 17.1004C96.6553 19.026 97.3287 20.6344 98.6754 21.9258C100.022 23.2171 101.672 23.8628 103.624 23.8628V23.8628Z" fill="#333333"/>
<path d="M120.004 23.2335H116.494V26.599H120.004V23.2335Z" fill="white"/>
</g>
<defs>
<linearGradient id="paint0_linear_2_15" x1="0.842671" y1="13.6348" x2="17.8479" y2="22.6811" gradientUnits="userSpaceOnUse">
<stop offset="0.14" stop-color="#06FFFF"/>
<stop offset="0.38" stop-color="#05F9FF"/>
<stop offset="0.7" stop-color="#02E8FF"/>
<stop offset="0.88" stop-color="#00DBFF"/>
<stop offset="0.92" stop-color="#00CBF4"/>
<stop offset="0.99" stop-color="#00A2D7"/>
<stop offset="1" stop-color="#009ED4"/>
</linearGradient>
<linearGradient id="paint1_linear_2_15" x1="23.399" y1="33.3026" x2="5.89187" y2="12.4207" gradientUnits="userSpaceOnUse">
<stop offset="0.41" stop-color="#06FFFF"/>
<stop offset="0.55" stop-color="#03EFFF"/>
<stop offset="0.69" stop-color="#00DBFF"/>
<stop offset="0.79" stop-color="#00CBF4"/>
<stop offset="0.98" stop-color="#00A2D7"/>
<stop offset="1" stop-color="#009ED4"/>
</linearGradient>
<linearGradient id="paint2_linear_2_15" x1="29.2199" y1="2.53396" x2="21.4477" y2="22.3736" gradientUnits="userSpaceOnUse">
<stop offset="0.33" stop-color="#06FFFF"/>
<stop offset="0.54" stop-color="#03EFFF"/>
<stop offset="0.75" stop-color="#00DBFF"/>
<stop offset="0.83" stop-color="#00CBF4"/>
<stop offset="0.98" stop-color="#00A2D7"/>
<stop offset="1" stop-color="#009ED4"/>
</linearGradient>
<clipPath id="clip0_2_15">
<rect width="120" height="27.0968" fill="white"/>
</clipPath>
</defs>
</svg>
